<?xml version="1.0" encoding="UTF-8"?>
<svg xmlns="http://www.w3.org/2000/svg" xmlns:xlink="http://www.w3.org/1999/xlink" viewBox="-2 -6 29 29" width="40px" height="30px">
<g id="surface16740157">
<path style=" stroke:none;fill-rule:nonzero;fill:rgb(40.392157%,29.411766%,69.411767%);fill-opacity:1;" d="M 11.71875 0 C 5.246094 0 0 5.246094 0 11.71875 C 0 18.191406 5.246094 23.4375 11.71875 23.4375 C 18.191406 23.4375 23.4375 18.191406 23.4375 11.71875 C 23.4375 5.246094 18.191406 0 11.71875 0 Z M 11.71875 0 "/>
<path style=" stroke:none;fill-rule:nonzero;fill:rgb(98.039216%,32.941177%,74.901962%);fill-opacity:1;" d="M 23.371094 12.957031 C 23.371094 12.9375 23.375 12.921875 23.375 12.90625 C 23.375 12.921875 23.371094 12.941406 23.371094 12.957031 Z M 0.0585938 12.902344 C 0.0625 12.925781 0.0664062 12.945312 0.0703125 12.96875 C 0.0664062 12.945312 0.0625 12.925781 0.0585938 12.902344 Z M 13.390625 14.824219 L 16.421875 14.824219 L 16.898438 11.742188 L 13.390625 11.742188 L 13.390625 10.0625 C 13.390625 8.78125 13.808594 7.648438 15.003906 7.648438 L 16.929688 7.648438 L 16.929688 4.957031 C 16.589844 4.910156 15.875 4.8125 14.523438 4.8125 C 11.703125 4.8125 10.050781 6.300781 10.050781 9.695312 L 10.050781 11.742188 L 7.152344 11.742188 L 7.152344 14.824219 L 10.050781 14.824219 L 10.050781 23.128906 C 10.625 23.214844 11.207031 23.273438 11.804688 23.273438 C 12.34375 23.273438 12.867188 23.226562 13.390625 23.152344 Z M 13.390625 14.824219 "/>
<path style=" stroke:none;fill-rule:nonzero;fill:rgb(40.392157%,29.411766%,69.411767%);fill-opacity:1;" d="M 11.71875 1.5625 C 17.320312 1.5625 21.875 6.117188 21.875 11.71875 C 21.875 17.320312 17.320312 21.875 11.71875 21.875 C 6.117188 21.875 1.5625 17.320312 1.5625 11.71875 C 1.5625 6.117188 6.117188 1.5625 11.71875 1.5625 M 11.71875 0 C 5.246094 0 0 5.246094 0 11.71875 C 0 18.191406 5.246094 23.4375 11.71875 23.4375 C 18.191406 23.4375 23.4375 18.191406 23.4375 11.71875 C 23.4375 5.246094 18.191406 0 11.71875 0 Z M 11.71875 0 "/>
</g>
</svg>
