<?xml version="1.0" encoding="UTF-8"?>
<svg xmlns="http://www.w3.org/2000/svg" xmlns:xlink="http://www.w3.org/1999/xlink" viewBox="-9 -10 60 60" width="30px" height="30px">
<g id="surface6848063">
<path style=" stroke:none;fill-rule:nonzero;fill:rgb(40.392157%,29.411766%,69.411767%);fill-opacity:1;" d="M 27.5 52.800781 C 13.527344 52.800781 2.199219 41.472656 2.199219 27.5 C 2.199219 13.527344 13.527344 2.199219 27.5 2.199219 C 41.472656 2.199219 52.800781 13.527344 52.800781 27.5 C 52.800781 41.472656 41.472656 52.800781 27.5 52.800781 Z M 27.5 52.800781 "/>
<path style=" stroke:none;fill-rule:nonzero;fill:rgb(40.392157%,29.411766%,69.411767%);fill-opacity:1;" d="M 38.761719 47.339844 C 43.5 47.339844 47.339844 43.5 47.339844 38.761719 L 47.339844 16.238281 C 47.339844 11.5 43.5 7.660156 38.761719 7.660156 L 16.238281 7.660156 C 11.5 7.660156 7.660156 11.5 7.660156 16.238281 L 7.660156 38.761719 C 7.660156 43.5 11.5 47.339844 16.238281 47.339844 Z M 38.761719 47.339844 "/>
<path style=" stroke:none;fill-rule:nonzero;fill:rgb(40.392157%,29.411766%,69.411767%);fill-opacity:1;" d="M 9.695312 10.695312 C 8.425781 12.191406 7.660156 14.125 7.660156 16.238281 L 7.660156 38.761719 C 7.660156 43.5 11.5 47.339844 16.238281 47.339844 L 38.761719 47.339844 C 43.5 47.339844 47.339844 43.5 47.339844 38.761719 L 47.339844 16.238281 C 47.339844 15.699219 47.285156 15.175781 47.191406 14.664062 C 40.515625 10.574219 32.683594 8.195312 24.28125 8.195312 C 19.164062 8.195312 14.261719 9.085938 9.695312 10.695312 Z M 9.695312 10.695312 "/>
<path style=" stroke:none;fill-rule:nonzero;fill:rgb(40.392157%,29.411766%,69.411767%);fill-opacity:1;" d="M 7.664062 16.136719 C 7.664062 16.171875 7.660156 16.203125 7.660156 16.238281 L 7.660156 38.761719 C 7.660156 43.5 11.5 47.339844 16.238281 47.339844 L 38.761719 47.339844 C 43.5 47.339844 47.339844 43.5 47.339844 38.761719 L 47.339844 19.882812 C 40.839844 15.230469 32.886719 12.484375 24.28125 12.484375 C 18.347656 12.484375 12.722656 13.800781 7.664062 16.136719 Z M 7.664062 16.136719 "/>
<path style=" stroke:none;fill-rule:nonzero;fill:rgb(40.392157%,29.411766%,69.411767%);fill-opacity:1;" d="M 7.660156 20.9375 L 7.660156 38.761719 C 7.660156 43.5 11.5 47.339844 16.238281 47.339844 L 38.761719 47.339844 C 43.5 47.339844 47.339844 43.5 47.339844 38.761719 L 47.339844 25.335938 C 41.148438 20.007812 33.09375 16.773438 24.28125 16.773438 C 18.269531 16.773438 12.617188 18.292969 7.660156 20.9375 Z M 7.660156 20.9375 "/>
<path style=" stroke:none;fill-rule:nonzero;fill:rgb(40.392157%,29.411766%,69.411767%);fill-opacity:1;" d="M 24.28125 21.066406 C 18.164062 21.066406 12.46875 22.851562 7.660156 25.902344 L 7.660156 38.761719 C 7.660156 43.5 11.5 47.339844 16.238281 47.339844 L 38.761719 47.339844 C 43.5 47.339844 47.339844 43.5 47.339844 38.761719 L 47.339844 31.324219 C 41.652344 25.03125 33.433594 21.066406 24.28125 21.066406 Z M 24.28125 21.066406 "/>
<path style=" stroke:none;fill-rule:nonzero;fill:rgb(40.392157%,29.411766%,69.411767%);fill-opacity:1;" d="M 24.28125 25.355469 C 17.996094 25.355469 12.230469 27.535156 7.660156 31.160156 L 7.660156 38.761719 C 7.660156 43.5 11.5 47.339844 16.238281 47.339844 L 38.761719 47.339844 C 43.5 47.339844 47.339844 43.5 47.339844 38.761719 L 47.339844 38.507812 C 42.667969 30.636719 34.097656 25.355469 24.28125 25.355469 Z M 24.28125 25.355469 "/>
<path style=" stroke:none;fill-rule:nonzero;fill:rgb(40.392157%,29.411766%,69.411767%);fill-opacity:1;" d="M 24.28125 29.644531 C 17.691406 29.644531 11.777344 32.488281 7.660156 37 L 7.660156 38.761719 C 7.660156 43.5 11.5 47.339844 16.238281 47.339844 L 38.761719 47.339844 C 41.40625 47.339844 43.769531 46.144531 45.34375 44.261719 C 42.136719 35.730469 33.933594 29.644531 24.28125 29.644531 Z M 24.28125 29.644531 "/>
<path style=" stroke:none;fill-rule:nonzero;fill:rgb(40.392157%,29.411766%,69.411767%);fill-opacity:1;" d="M 38.761719 47.339844 C 39.789062 47.339844 40.765625 47.152344 41.679688 46.820312 C 39.390625 39.367188 32.484375 33.933594 24.28125 33.933594 C 17.648438 33.933594 11.851562 37.484375 8.660156 42.78125 C 10.101562 45.492188 12.953125 47.339844 16.238281 47.339844 Z M 38.761719 47.339844 "/>
<path style=" stroke:none;fill-rule:nonzero;fill:rgb(40.392157%,29.411766%,69.411767%);fill-opacity:1;" d="M 24.28125 38.226562 C 18.773438 38.226562 14.015625 41.425781 11.75 46.0625 C 13.058594 46.871094 14.589844 47.339844 16.238281 47.339844 L 37.347656 47.339844 C 35.382812 42.023438 30.28125 38.226562 24.28125 38.226562 Z M 24.28125 38.226562 "/>
<path style=" stroke:none;fill-rule:nonzero;fill:rgb(40.392157%,29.411766%,69.411767%);fill-opacity:1;" d="M 24.28125 42.515625 C 20.722656 42.515625 17.640625 44.460938 15.96875 47.328125 C 16.058594 47.332031 16.148438 47.339844 16.238281 47.339844 L 32.605469 47.339844 C 30.933594 44.464844 27.847656 42.515625 24.28125 42.515625 Z M 24.28125 42.515625 "/>
<path style=" stroke:none;fill-rule:nonzero;fill:rgb(40.392157%,29.411766%,69.411767%);fill-opacity:1;" d="M 39.296875 8.195312 C 43.4375 8.195312 46.804688 11.5625 46.804688 15.703125 L 46.804688 39.296875 C 46.804688 43.4375 43.4375 46.804688 39.296875 46.804688 L 15.703125 46.804688 C 11.5625 46.804688 8.195312 43.4375 8.195312 39.296875 L 8.195312 15.703125 C 8.195312 11.5625 11.5625 8.195312 15.703125 8.195312 L 39.296875 8.195312 M 39.296875 7.121094 L 15.703125 7.121094 C 10.964844 7.121094 7.121094 10.964844 7.121094 15.703125 L 7.121094 39.296875 C 7.121094 44.035156 10.964844 47.878906 15.703125 47.878906 L 39.296875 47.878906 C 44.035156 47.878906 47.878906 44.035156 47.878906 39.296875 L 47.878906 15.703125 C 47.878906 10.964844 44.035156 7.121094 39.296875 7.121094 Z M 39.296875 7.121094 "/>
<path style=" stroke:none;fill-rule:nonzero;fill:rgb(97.647059%,49.019608%,80.392158%);fill-opacity:1;" d="M 35.542969 17.847656 C 34.65625 17.847656 33.933594 18.566406 33.933594 19.457031 C 33.933594 20.34375 34.65625 21.066406 35.542969 21.066406 C 36.433594 21.066406 37.152344 20.34375 37.152344 19.457031 C 37.152344 18.566406 36.433594 17.847656 35.542969 17.847656 Z M 35.542969 17.847656 "/>
<path style="fill:none;stroke-width:8.6;stroke-linecap:butt;stroke-linejoin:miter;stroke:rgb(97.647059%,49.019608%,80.392158%);stroke-opacity:1;stroke-miterlimit:10;" d="M 86 65.880398 C 74.883523 65.880398 65.880398 74.883523 65.880398 86 C 65.880398 97.116477 74.883523 106.119602 86 106.119602 C 97.116477 106.119602 106.119602 97.116477 106.119602 86 C 106.119602 74.883523 97.116477 65.880398 86 65.880398 Z M 86 65.880398 " transform="matrix(0.319767,0,0,0.319767,0,0)"/>
<path style="fill:none;stroke-width:8.6;stroke-linecap:butt;stroke-linejoin:miter;stroke:rgb(97.647059%,49.019608%,80.392158%);stroke-opacity:1;stroke-miterlimit:10;" d="M 129.59858 67.553977 C 129.59858 53.664489 118.335511 42.40142 104.446023 42.40142 C 97.153125 42.40142 74.846875 42.40142 67.553977 42.40142 C 53.664489 42.40142 42.40142 53.664489 42.40142 67.553977 C 42.40142 74.846875 42.40142 97.153125 42.40142 104.446023 C 42.40142 118.335511 53.664489 129.59858 67.553977 129.59858 C 74.846875 129.59858 97.153125 129.59858 104.446023 129.59858 C 118.335511 129.59858 129.59858 118.335511 129.59858 104.446023 C 129.59858 97.153125 129.59858 74.846875 129.59858 67.553977 Z M 129.59858 67.553977 " transform="matrix(0.319767,0,0,0.319767,0,0)"/>
</g>
</svg>
