<?xml version="1.0" encoding="UTF-8"?>
<svg xmlns="http://www.w3.org/2000/svg" xmlns:xlink="http://www.w3.org/1999/xlink" viewBox="-10 -10 41 41" width="30px" height="30px">
<g id="surface1714019">
<path style=" stroke:none;fill-rule:nonzero;fill:rgb(40.392157%,29.411766%,69.411767%);fill-opacity:1;" d="M 16 32 C 7.164062 32 0 24.835938 0 16 C 0 7.164062 7.164062 0 16 0 C 24.835938 0 32 7.164062 32 16 C 32 24.835938 24.835938 32 16 32 Z M 16 32 "/>
<path style=" stroke:none;fill-rule:nonzero;fill:rgb(100%,100%,100%);fill-opacity:1;" d="M 10.636719 4.601562 C 7.3125 4.601562 4.601562 7.3125 4.601562 10.636719 L 4.601562 19.367188 C 4.601562 22.6875 7.3125 25.398438 10.636719 25.398438 L 19.367188 25.398438 C 22.6875 25.398438 25.398438 22.6875 25.398438 19.363281 L 25.398438 10.636719 C 25.398438 7.3125 22.6875 4.601562 19.363281 4.601562 Z M 10.636719 6.199219 L 19.363281 6.199219 C 21.824219 6.199219 23.800781 8.175781 23.800781 10.636719 L 23.800781 19.363281 C 23.800781 21.824219 21.824219 23.800781 19.367188 23.800781 L 10.636719 23.800781 C 8.175781 23.800781 6.199219 21.824219 6.199219 19.367188 L 6.199219 10.636719 C 6.199219 8.175781 8.175781 6.199219 10.636719 6.199219 Z M 21.398438 7.800781 C 20.957031 7.800781 20.601562 8.15625 20.601562 8.601562 C 20.601562 9.042969 20.957031 9.398438 21.398438 9.398438 C 21.84375 9.398438 22.199219 9.042969 22.199219 8.601562 C 22.199219 8.15625 21.84375 7.800781 21.398438 7.800781 Z M 15 9.398438 C 11.917969 9.398438 9.398438 11.917969 9.398438 15 C 9.398438 18.082031 11.917969 20.601562 15 20.601562 C 18.082031 20.601562 20.601562 18.082031 20.601562 15 C 20.601562 11.917969 18.082031 9.398438 15 9.398438 Z M 15 11 C 17.21875 11 19 12.78125 19 15 C 19 17.21875 17.21875 19 15 19 C 12.78125 19 11 17.21875 11 15 C 11 12.78125 12.78125 11 15 11 Z M 15 11 "/>
</g>
</svg>
