<?xml version="1.0" encoding="UTF-8"?>
<svg xmlns="http://www.w3.org/2000/svg" xmlns:xlink="http://www.w3.org/1999/xlink" viewBox="-9 -16 40 40" width="40px" height="30px">
<g id="surface16378450">
<path style=" stroke:none;fill-rule:nonzero;fill:rgb(100%,100%,100%);fill-opacity:1;" d="M 23.4375 5.152344 C 22.621094 5.503906 21.796875 5.769531 20.886719 5.851562 C 21.796875 5.328125 22.527344 4.441406 22.886719 3.480469 C 21.980469 4.003906 21.070312 4.359375 20.066406 4.535156 C 19.152344 3.65625 17.96875 3.125 16.691406 3.125 C 14.234375 3.125 12.226562 5.066406 12.226562 7.445312 C 12.226562 7.792969 12.226562 8.148438 12.316406 8.417969 C 7.617188 8.417969 4.394531 5.769531 2.210938 3.125 C 1.75 3.742188 1.570312 4.535156 1.570312 5.328125 C 1.570312 6.824219 2.394531 8.148438 3.578125 8.941406 C 2.84375 8.855469 2.117188 8.679688 1.570312 8.417969 C 1.570312 8.417969 1.570312 8.417969 1.570312 8.503906 C 1.570312 10.621094 3.117188 12.378906 5.128906 12.730469 C 4.761719 12.816406 4.394531 12.910156 3.9375 12.910156 C 3.667969 12.910156 3.394531 12.910156 3.117188 12.824219 C 3.667969 14.585938 6.214844 16.613281 8.214844 16.613281 C 6.664062 17.753906 5.222656 18.75 2.34375 18.75 C 1.976562 18.75 2.269531 18.75 1.5625 18.75 C 3.566406 19.984375 5.9375 20.3125 8.398438 20.3125 C 16.691406 20.3125 21.160156 13.703125 21.160156 7.972656 C 21.160156 7.792969 21.160156 7.625 21.160156 7.445312 C 22.070312 6.824219 22.804688 6.035156 23.4375 5.152344 "/>
</g>
</svg>
