<?xml version="1.0" encoding="UTF-8"?>
<svg xmlns="http://www.w3.org/2000/svg" xmlns:xlink="http://www.w3.org/1999/xlink" viewBox="0 0 24 24" width="24px" height="24px">
<g id="surface6644024">
<path style=" stroke:none;fill-rule:nonzero;fill:rgb(92.54902%,94.117647%,94.509804%);fill-opacity:1;" d="M 12 21.960938 C 6.5 21.960938 2.039062 17.5 2.039062 12 C 2.039062 6.5 6.5 2.039062 12 2.039062 C 17.5 2.039062 21.960938 6.5 21.960938 12 C 21.960938 17.5 17.5 21.960938 12 21.960938 Z M 12 21.960938 "/>
<path style=" stroke:none;fill-rule:nonzero;fill:rgb(20.392157%,59.607846%,85.882354%);fill-opacity:1;" d="M 16 9.871094 L 13.496094 9.871094 L 13.496094 8.449219 C 13.496094 7.71875 13.554688 7.253906 14.605469 7.253906 L 15.933594 7.253906 L 15.933594 4.996094 C 15.285156 4.929688 14.636719 4.898438 13.988281 4.898438 C 12.0625 4.898438 10.65625 6.078125 10.65625 8.234375 L 10.65625 9.871094 L 8.527344 9.871094 L 8.527344 12.710938 L 10.65625 12.710938 L 10.65625 19.101562 L 13.496094 19.101562 L 13.496094 12.707031 L 15.671875 12.707031 Z M 16 9.871094 "/>
</g>
</svg>
