<?xml version="1.0" encoding="UTF-8"?>
<svg xmlns="http://www.w3.org/2000/svg" xmlns:xlink="http://www.w3.org/1999/xlink" viewBox="0 0 24 24" width="24px" height="24px">
<g id="surface7036044">
<path style=" stroke:none;fill-rule:nonzero;fill:rgb(20.392157%,59.607846%,85.882354%);fill-opacity:1;" d="M 12 22.679688 C 6.101562 22.679688 1.320312 17.898438 1.320312 12 C 1.320312 6.101562 6.101562 1.320312 12 1.320312 C 17.898438 1.320312 22.679688 6.101562 22.679688 12 C 22.679688 17.898438 17.898438 22.679688 12 22.679688 Z M 12 22.679688 "/>
<path style=" stroke:none;fill-rule:nonzero;fill:rgb(100%,100%,100%);fill-opacity:1;" d="M 9.160156 5.609375 C 7.203125 5.609375 5.609375 7.203125 5.609375 9.160156 L 5.609375 14.839844 C 5.609375 16.796875 7.203125 18.390625 9.160156 18.390625 L 14.839844 18.390625 C 16.796875 18.390625 18.390625 16.796875 18.390625 14.839844 L 18.390625 9.160156 C 18.390625 7.203125 16.796875 5.609375 14.839844 5.609375 Z M 9.160156 7.03125 L 14.839844 7.03125 C 16.015625 7.03125 16.96875 7.984375 16.96875 9.160156 L 16.96875 14.839844 C 16.96875 16.015625 16.015625 16.96875 14.839844 16.96875 L 9.160156 16.96875 C 7.984375 16.96875 7.03125 16.015625 7.03125 14.839844 L 7.03125 9.160156 C 7.03125 7.984375 7.984375 7.03125 9.160156 7.03125 Z M 15.550781 7.738281 C 15.15625 7.738281 14.839844 8.058594 14.839844 8.449219 C 14.839844 8.84375 15.15625 9.160156 15.550781 9.160156 C 15.941406 9.160156 16.261719 8.84375 16.261719 8.449219 C 16.261719 8.058594 15.941406 7.738281 15.550781 7.738281 Z M 12 8.449219 C 10.042969 8.449219 8.449219 10.042969 8.449219 12 C 8.449219 13.957031 10.042969 15.550781 12 15.550781 C 13.957031 15.550781 15.550781 13.957031 15.550781 12 C 15.550781 10.042969 13.957031 8.449219 12 8.449219 Z M 12 9.871094 C 13.175781 9.871094 14.128906 10.824219 14.128906 12 C 14.128906 13.175781 13.175781 14.128906 12 14.128906 C 10.824219 14.128906 9.871094 13.175781 9.871094 12 C 9.871094 10.824219 10.824219 9.871094 12 9.871094 Z M 12 9.871094 "/>
</g>
</svg>
