<?xml version="1.0" encoding="UTF-8"?>
<svg xmlns="http://www.w3.org/2000/svg" xmlns:xlink="http://www.w3.org/1999/xlink" viewBox="0 0 24 24" width="24px" height="24px">
<g id="surface13205235">
<path style=" stroke:none;fill-rule:nonzero;fill:rgb(92.54902%,94.117647%,94.509804%);fill-opacity:1;" d="M 12 21.960938 C 6.5 21.960938 2.039062 17.5 2.039062 12 C 2.039062 6.5 6.5 2.039062 12 2.039062 C 17.5 2.039062 21.960938 6.5 21.960938 12 C 21.960938 17.5 17.5 21.960938 12 21.960938 Z M 12 21.960938 "/>
<path style=" stroke:none;fill-rule:nonzero;fill:rgb(20.392157%,59.607846%,85.882354%);fill-opacity:1;" d="M 9.199219 5.699219 C 7.269531 5.699219 5.699219 7.269531 5.699219 9.199219 L 5.699219 14.800781 C 5.699219 16.730469 7.269531 18.300781 9.199219 18.300781 L 14.800781 18.300781 C 16.730469 18.300781 18.300781 16.730469 18.300781 14.800781 L 18.300781 9.199219 C 18.300781 7.269531 16.730469 5.699219 14.800781 5.699219 Z M 9.199219 7.101562 L 14.800781 7.101562 C 15.957031 7.101562 16.898438 8.042969 16.898438 9.199219 L 16.898438 14.800781 C 16.898438 15.957031 15.957031 16.898438 14.800781 16.898438 L 9.199219 16.898438 C 8.042969 16.898438 7.101562 15.957031 7.101562 14.800781 L 7.101562 9.199219 C 7.101562 8.042969 8.042969 7.101562 9.199219 7.101562 Z M 15.5 7.800781 C 15.113281 7.800781 14.800781 8.113281 14.800781 8.5 C 14.800781 8.886719 15.113281 9.199219 15.5 9.199219 C 15.886719 9.199219 16.199219 8.886719 16.199219 8.5 C 16.199219 8.113281 15.886719 7.800781 15.5 7.800781 Z M 12 8.5 C 10.070312 8.5 8.5 10.070312 8.5 12 C 8.5 13.929688 10.070312 15.5 12 15.5 C 13.929688 15.5 15.5 13.929688 15.5 12 C 15.5 10.070312 13.929688 8.5 12 8.5 Z M 12 9.898438 C 13.15625 9.898438 14.101562 10.84375 14.101562 12 C 14.101562 13.15625 13.15625 14.101562 12 14.101562 C 10.84375 14.101562 9.898438 13.15625 9.898438 12 C 9.898438 10.84375 10.84375 9.898438 12 9.898438 Z M 12 9.898438 "/>
</g>
</svg>
