<?xml version="1.0" encoding="UTF-8"?>
<svg xmlns="http://www.w3.org/2000/svg" xmlns:xlink="http://www.w3.org/1999/xlink" viewBox="0 0 24 24" width="24px" height="24px">
<g id="surface266247815">
<path style=" stroke:none;fill-rule:nonzero;fill:rgb(20.392157%,59.607846%,85.882354%);fill-opacity:1;" d="M 12 22.199219 C 6.367188 22.199219 1.800781 17.632812 1.800781 12 C 1.800781 6.367188 6.367188 1.800781 12 1.800781 C 17.632812 1.800781 22.199219 6.367188 22.199219 12 C 22.199219 17.632812 17.632812 22.199219 12 22.199219 Z M 12 22.199219 "/>
<path style=" stroke:none;fill-rule:nonzero;fill:rgb(100%,100%,100%);fill-opacity:1;" d="M 18.816406 7.773438 C 18.316406 7.996094 17.777344 8.144531 17.210938 8.210938 C 17.789062 7.867188 18.230469 7.320312 18.4375 6.664062 C 17.898438 6.984375 17.300781 7.21875 16.664062 7.34375 C 16.152344 6.800781 15.425781 6.460938 14.621094 6.460938 C 13.078125 6.460938 11.824219 7.714844 11.824219 9.257812 C 11.824219 9.476562 11.851562 9.691406 11.898438 9.894531 C 9.574219 9.777344 7.511719 8.664062 6.132812 6.972656 C 5.890625 7.386719 5.753906 7.867188 5.753906 8.378906 C 5.753906 9.347656 6.246094 10.207031 6.996094 10.707031 C 6.539062 10.691406 6.109375 10.566406 5.730469 10.355469 C 5.730469 10.367188 5.730469 10.378906 5.730469 10.390625 C 5.730469 11.746094 6.695312 12.878906 7.972656 13.132812 C 7.738281 13.199219 7.492188 13.230469 7.238281 13.230469 C 7.058594 13.230469 6.882812 13.214844 6.710938 13.183594 C 7.066406 14.292969 8.101562 15.101562 9.324219 15.125 C 8.367188 15.875 7.160156 16.324219 5.851562 16.324219 C 5.625 16.324219 5.402344 16.308594 5.183594 16.285156 C 6.421875 17.078125 7.890625 17.539062 9.46875 17.539062 C 14.617188 17.539062 17.429688 13.277344 17.429688 9.582031 C 17.429688 9.460938 17.425781 9.339844 17.421875 9.21875 C 17.96875 8.824219 18.441406 8.332031 18.816406 7.773438 Z M 18.816406 7.773438 "/>
</g>
</svg>
