<?xml version="1.0" encoding="UTF-8"?>
<svg xmlns="http://www.w3.org/2000/svg" xmlns:xlink="http://www.w3.org/1999/xlink" viewBox="0 0 30 30" width="30px" height="30px">
<g id="surface13201071">
<path style=" stroke:none;fill-rule:nonzero;fill:rgb(92.54902%,94.117647%,94.509804%);fill-opacity:1;" d="M 15 27.449219 C 8.125 27.449219 2.550781 21.875 2.550781 15 C 2.550781 8.125 8.125 2.550781 15 2.550781 C 21.875 2.550781 27.449219 8.125 27.449219 15 C 27.449219 21.875 21.875 27.449219 15 27.449219 Z M 15 27.449219 "/>
<path style=" stroke:none;fill-rule:nonzero;fill:rgb(20.392157%,59.607846%,85.882354%);fill-opacity:1;" d="M 23.199219 9.914062 C 22.597656 10.183594 21.949219 10.363281 21.269531 10.445312 C 21.960938 10.027344 22.496094 9.367188 22.746094 8.582031 C 22.097656 8.96875 21.375 9.246094 20.609375 9.398438 C 19.996094 8.746094 19.121094 8.335938 18.152344 8.335938 C 16.296875 8.335938 14.789062 9.84375 14.789062 11.699219 C 14.789062 11.964844 14.820312 12.222656 14.875 12.46875 C 12.078125 12.328125 9.601562 10.988281 7.941406 8.953125 C 7.652344 9.449219 7.484375 10.027344 7.484375 10.644531 C 7.484375 11.8125 8.078125 12.839844 8.980469 13.445312 C 8.429688 13.425781 7.910156 13.273438 7.457031 13.023438 C 7.457031 13.039062 7.457031 13.050781 7.457031 13.066406 C 7.457031 14.695312 8.617188 16.054688 10.15625 16.363281 C 9.875 16.441406 9.578125 16.484375 9.269531 16.484375 C 9.054688 16.484375 8.84375 16.460938 8.636719 16.421875 C 9.066406 17.757812 10.308594 18.734375 11.78125 18.761719 C 10.628906 19.664062 9.179688 20.199219 7.601562 20.199219 C 7.332031 20.199219 7.0625 20.183594 6.796875 20.152344 C 8.289062 21.109375 10.054688 21.664062 11.957031 21.664062 C 18.144531 21.664062 21.53125 16.539062 21.53125 12.089844 C 21.53125 11.945312 21.527344 11.800781 21.519531 11.65625 C 22.179688 11.179688 22.75 10.589844 23.199219 9.914062 Z M 23.199219 9.914062 "/>
</g>
</svg>
